<?xml version="1.0" encoding="UTF-8" standalone="no"?>
<!-- Created with Inkscape (http://www.inkscape.org/) -->

<svg
   width="106.40266mm"
   height="64.821365mm"
   viewBox="0 0 106.40266 64.821365"
   version="1.1"
   id="svg5"
   sodipodi:docname="shoppingCartLogo.svg"
   inkscape:version="1.1.2 (0a00cf5339, 2022-02-04)"
   xmlns:inkscape="http://www.inkscape.org/namespaces/inkscape"
   xmlns:sodipodi="http://sodipodi.sourceforge.net/DTD/sodipodi-0.dtd"
   xmlns="http://www.w3.org/2000/svg"
   xmlns:svg="http://www.w3.org/2000/svg">
  <sodipodi:namedview
     id="namedview7"
     pagecolor="#ffffff"
     bordercolor="#666666"
     borderopacity="1.0"
     inkscape:pageshadow="2"
     inkscape:pageopacity="0.0"
     inkscape:pagecheckerboard="0"
     inkscape:document-units="mm"
     showgrid="false"
     inkscape:snap-global="false"
     inkscape:snap-bbox="true"
     inkscape:bbox-nodes="true"
     inkscape:bbox-paths="true"
     inkscape:snap-bbox-edge-midpoints="true"
     inkscape:snap-bbox-midpoints="true"
     inkscape:object-paths="true"
     inkscape:snap-intersection-paths="true"
     inkscape:snap-smooth-nodes="true"
     inkscape:snap-midpoints="true"
     inkscape:snap-object-midpoints="true"
     inkscape:snap-center="true"
     inkscape:snap-text-baseline="true"
     inkscape:zoom="0.82408104"
     inkscape:cx="198.40282"
     inkscape:cy="104.9654"
     inkscape:window-width="1536"
     inkscape:window-height="800"
     inkscape:window-x="0"
     inkscape:window-y="0"
     inkscape:window-maximized="1"
     inkscape:current-layer="layer1" />
  <defs
     id="defs2" />
  <g
     inkscape:label="Layer 1"
     inkscape:groupmode="layer"
     id="layer1"
     style="display:inline"
     transform="translate(-34.948925,-69.300163)">
    <g
       id="g7351"
       inkscape:export-filename="/home/jer/Documents/GroceryList/client/public/shoppingCartLogoFinal.svg"
       inkscape:export-xdpi="96"
       inkscape:export-ydpi="96">
      <path
         sodipodi:type="star"
         style="fill:#3cad40;fill-opacity:1"
         id="path2165"
         inkscape:flatsided="false"
         sodipodi:sides="3"
         sodipodi:cx="139"
         sodipodi:cy="363"
         sodipodi:r1="49.010204"
         sodipodi:r2="24.5051"
         sodipodi:arg1="3.1415927"
         sodipodi:arg2="4.1887902"
         inkscape:rounded="0"
         inkscape:randomized="0"
         d="m 89.989796,363 36.757654,-21.22204 36.75765,-21.22204 0,42.44408 0,42.44408 -36.75765,-21.22204 z"
         transform="matrix(0.33500938,0,0,0.0590381,4.8014998,50.581748)"
         inkscape:transform-center-x="4.1047202"
         inkscape:transform-center-y="-2.3404694e-06" />
      <path
         sodipodi:type="star"
         style="fill:#3cad40;fill-opacity:1"
         id="path2165-1"
         inkscape:flatsided="false"
         sodipodi:sides="3"
         sodipodi:cx="139"
         sodipodi:cy="363"
         sodipodi:r1="49.010204"
         sodipodi:r2="24.5051"
         sodipodi:arg1="3.1415927"
         sodipodi:arg2="4.1887902"
         inkscape:rounded="0"
         inkscape:randomized="0"
         transform="matrix(0.43938107,0,0,0.06454796,2.0282557,60.607242)"
         inkscape:transform-center-x="5.3835392"
         inkscape:transform-center-y="-1.0824055e-06"
         d="m 89.989796,363 36.757654,-21.22204 36.75765,-21.22204 0,42.44408 0,42.44408 -36.75765,-21.22204 z" />
      <path
         sodipodi:type="star"
         style="fill:#3cad40;fill-opacity:1"
         id="path2491"
         inkscape:flatsided="false"
         sodipodi:sides="3"
         sodipodi:cx="139"
         sodipodi:cy="363"
         sodipodi:r1="49.010204"
         sodipodi:r2="24.5051"
         sodipodi:arg1="3.1415927"
         sodipodi:arg2="4.1887902"
         inkscape:rounded="0"
         inkscape:randomized="0"
         transform="matrix(0.28462305,0,0,0.06454796,26.105362,70.258358)"
         inkscape:transform-center-x="3.4873592"
         inkscape:transform-center-y="-1.0824055e-06"
         d="m 89.989796,363 36.757654,-21.22204 36.75765,-21.22204 0,42.44408 0,42.44408 -36.75765,-21.22204 z" />
      <path
         sodipodi:type="star"
         style="fill:#3cad40;fill-opacity:1"
         id="path2493"
         inkscape:flatsided="false"
         sodipodi:sides="3"
         sodipodi:cx="139"
         sodipodi:cy="363"
         sodipodi:r1="49.010204"
         sodipodi:r2="24.5051"
         sodipodi:arg1="3.1415927"
         sodipodi:arg2="4.1887902"
         inkscape:rounded="0"
         inkscape:randomized="0"
         transform="matrix(0.2918211,0,0,0.06454796,25.850592,83.084473)"
         inkscape:transform-center-x="3.5755528"
         inkscape:transform-center-y="-1.0824055e-06"
         d="m 89.989796,363 36.757654,-21.22204 36.75765,-21.22204 0,42.44408 0,42.44408 -36.75765,-21.22204 z" />
      <path
         sodipodi:type="star"
         style="fill:#3cad40;fill-opacity:1"
         id="path2495"
         inkscape:flatsided="false"
         sodipodi:sides="3"
         sodipodi:cx="139"
         sodipodi:cy="363"
         sodipodi:r1="49.010204"
         sodipodi:r2="24.5051"
         sodipodi:arg1="3.1415927"
         sodipodi:arg2="4.1887902"
         inkscape:rounded="0"
         inkscape:randomized="0"
         transform="matrix(0.41778692,0,0,0.06454796,6.3203243,94.050717)"
         inkscape:transform-center-x="5.1189569"
         inkscape:transform-center-y="-1.0824055e-06"
         d="m 89.989796,363 36.757654,-21.22204 36.75765,-21.22204 0,42.44408 0,42.44408 -36.75765,-21.22204 z" />
      <path
         sodipodi:type="star"
         style="fill:#3cad40;fill-opacity:1"
         id="path2497"
         inkscape:flatsided="false"
         sodipodi:sides="3"
         sodipodi:cx="139"
         sodipodi:cy="363"
         sodipodi:r1="49.010204"
         sodipodi:r2="24.5051"
         sodipodi:arg1="3.1415927"
         sodipodi:arg2="4.1887902"
         inkscape:rounded="0"
         inkscape:randomized="0"
         transform="matrix(0.38081747,0,0,0.1284623,11.916906,81.420324)"
         inkscape:transform-center-x="4.6659867"
         inkscape:transform-center-y="-4.3540014e-06"
         d="m 89.989796,363 36.757654,-21.22204 36.75765,-21.22204 0,42.44408 0,42.44408 -36.75765,-21.22204 z" />
      <path
         sodipodi:type="star"
         style="fill:#3cad40;fill-opacity:1"
         id="path2499"
         inkscape:flatsided="false"
         sodipodi:sides="3"
         sodipodi:cx="139"
         sodipodi:cy="363"
         sodipodi:r1="49.010204"
         sodipodi:r2="24.5051"
         sodipodi:arg1="3.1415927"
         sodipodi:arg2="4.1887902"
         inkscape:rounded="0"
         inkscape:randomized="0"
         transform="matrix(0.41644599,0,0,0.13727807,43.017635,78.110605)"
         inkscape:transform-center-x="5.1025266"
         inkscape:transform-center-y="-5.1017742e-06"
         d="m 89.989796,363 36.757654,-21.22204 36.75765,-21.22204 0,42.44408 0,42.44408 -36.75765,-21.22204 z" />
      <path
         id="rect31"
         style="fill:#47ca4c;fill-opacity:1;fill-rule:evenodd;stroke-width:0.264583"
         d="m 56.666826,69.300163 -1.327716,5.421373 h 16.303398 l -3.454849,45.728474 h 51.974601 l 21.18932,-51.149847 h -6.905 l -4.484,11.554849 h -11.94759 l 0.002,-0.0052 h -2.35748 l -0.002,0.0052 h -10.84275 l 0.002,-0.0052 h -2.35696 l -0.002,0.0052 H 91.850699 l 0.0013,-0.0052 h -2.35748 l -0.0013,0.0052 H 77.865505 l 1.175664,-11.554849 h -2.510956 -4.47828 z m 20.958896,13.91181 H 88.91599 l -2.251459,9.193239 h -9.974585 z m 13.647748,0 h 10.60711 l -2.251463,9.193239 H 89.022011 Z m 12.96407,0 h 10.84275 l -2.25146,9.193239 h -10.84275 z m 13.20023,0 h 11.61014 l -3.56714,9.193239 h -10.29446 z m -40.987606,11.5502 h 9.637138 l -2.366752,9.664007 h -8.253759 z m 11.994618,0 h 10.607103 l -2.366752,9.664007 H 86.078029 Z m 12.964058,0 h 10.84275 l -2.36674,9.664007 H 99.042094 Z m 13.20023,0 h 9.95702 l -3.75013,9.664007 h -8.57363 z M 75.226881,106.78366 h 7.916313 l -1.672838,6.83059 h -6.938594 z m 10.273792,0 h 10.607104 l -1.672837,6.83059 H 83.827836 Z m 12.964065,0 h 10.842752 l -1.67284,6.83059 H 96.791901 Z m 13.200222,0 h 8.23619 l -2.65055,6.83059 h -7.25847 z m -35.958186,14.84509 a 5.4830574,7.0153831 46.861809 0 0 -7.687465,6.24613 5.4830574,7.0153831 46.861809 0 0 4.627936,6.24665 5.4830574,7.0153831 46.861809 0 0 7.688108,-6.24665 5.4830574,7.0153831 46.861809 0 0 -4.628579,-6.24613 z m 37.007036,0 a 5.4830574,7.0153831 46.861809 0 0 -7.68746,6.24613 5.4830574,7.0153831 46.861809 0 0 4.62793,6.24665 5.4830574,7.0153831 46.861809 0 0 7.68811,-6.24665 5.4830574,7.0153831 46.861809 0 0 -4.62858,-6.24613 z" />
    </g>
  </g>
</svg>
